<svg width="24" height="24" viewBox="0 0 24 24" fill="none" xmlns="http://www.w3.org/2000/svg">
<path d="M17 1.99902H7C4.23858 1.99902 2 4.23638 2 6.9963V16.9909C2 19.7508 4.23858 21.9881 7 21.9881H17C19.7614 21.9881 22 19.7508 22 16.9909V6.9963C22 4.23638 19.7614 1.99902 17 1.99902Z" stroke="#050A14" stroke-width="1.99891" stroke-linecap="round" stroke-linejoin="round"/>
<path d="M16.0002 11.364C16.1236 12.1958 15.9815 13.0453 15.594 13.7917C15.2065 14.5381 14.5933 15.1434 13.8418 15.5215C13.0903 15.8995 12.2386 16.0311 11.408 15.8975C10.5773 15.7639 9.80996 15.3719 9.21503 14.7774C8.62011 14.1828 8.22793 13.4158 8.09426 12.5856C7.9606 11.7554 8.09226 10.9042 8.47052 10.1531C8.84878 9.40197 9.45438 8.78919 10.2012 8.4019C10.948 8.01462 11.7979 7.87254 12.6302 7.99588C13.4791 8.1217 14.265 8.51706 14.8719 9.12358C15.4787 9.73009 15.8743 10.5156 16.0002 11.364Z" stroke="#050A14" stroke-width="1.99891" stroke-linecap="round" stroke-linejoin="round"/>
<path d="M17.5 6.49658H17.51" stroke="#050A14" stroke-width="1.99891" stroke-linecap="round" stroke-linejoin="round"/>
</svg>
