<svg width="40" height="32" viewBox="0 0 40 32" fill="none" xmlns="http://www.w3.org/2000/svg">
<path d="M21.6279 0V31.9892V0Z" fill="#050A14"/>
<path d="M21.6279 0V31.9892" stroke="#050A14" stroke-width="0.871556"/>
<path d="M8.18911 9.73584C10.0235 11.4001 10.6963 13.0643 10.7042 14.5762C11.9769 13.431 13.8297 12.577 16.4737 12.3697C16.6809 13.9663 15.8453 16.2509 14.112 18.0583C14.7884 18.3539 15.4772 18.7853 16.166 19.3842C14.9872 20.6098 12.0714 21.4802 9.39552 20.7122C9.3881 20.7138 9.38059 20.7152 9.37316 20.7167C9.00115 21.3835 8.53029 21.9542 8.06911 22.3924C7.54861 21.8828 7.15871 21.3258 6.87958 20.7471C4.23909 21.4522 1.39664 20.5903 0.236505 19.3842C0.949771 18.764 1.66305 18.3234 2.36266 18.0272C0.649698 16.2249 -0.174954 13.9572 0.0310158 12.3697C2.81803 12.5882 4.72567 13.5255 6.00176 14.7645C5.98474 12.6409 6.95347 10.6734 8.18911 9.73584ZM3.05409 10.7534C5.17268 10.9195 5.63484 12.4396 5.59671 13.3679C3.8747 13.2227 2.9389 11.6412 3.05409 10.7534ZM13.5668 10.7534C13.682 11.6412 12.7461 13.2226 11.0242 13.3679C10.9861 12.4396 11.4482 10.9195 13.5668 10.7534Z" fill="#050A14"/>
<path d="M35.4403 10.4312C36.6143 10.7182 37.9181 12.3088 38.3986 13.2128V10.153L37.1849 9.59668H32.2544C30.358 9.66622 27.5059 10.765 26.717 14.0473C26.4135 20.167 30.5602 22.0679 32.4819 22.2533H36.3505C37.6249 22.2533 38.702 21.8823 39.0813 21.6969V17.5244H39.9916V16.6899H34.7576V17.5244H36.3505C36.6539 17.5244 36.7298 17.9417 36.7298 18.1503C36.7803 18.7762 36.8512 20.1114 36.7298 20.4452C36.6084 20.779 36.4264 21.2797 35.9712 21.2797H34.4162H32.8612C29.1443 19.7498 28.5596 15.8215 29.0685 13.7692C29.4477 12.2393 31.0407 10.6398 31.7992 10.4312C33.3163 10.0139 34.3024 10.153 35.4403 10.4312Z" fill="#050A14"/>
</svg>
