<svg width="28" height="28" viewBox="0 0 28 28" fill="none" xmlns="http://www.w3.org/2000/svg">
<path d="M11.5923 18.0821C11.4882 17.6784 11.2778 17.31 10.9829 17.0152C10.6881 16.7203 10.3197 16.5099 9.91596 16.4058L2.75898 14.5602C2.63688 14.5256 2.52941 14.452 2.45289 14.3508C2.37636 14.2495 2.33496 14.126 2.33496 13.9991C2.33496 13.8722 2.37636 13.7487 2.45289 13.6474C2.52941 13.5462 2.63688 13.4726 2.75898 13.438L9.91596 11.5913C10.3195 11.4872 10.6879 11.277 10.9827 10.9824C11.2775 10.6878 11.488 10.3196 11.5923 9.91607L13.4379 2.7591C13.4722 2.63651 13.5456 2.52852 13.6471 2.45158C13.7485 2.37465 13.8723 2.33301 13.9996 2.33301C14.1269 2.33301 14.2507 2.37465 14.3521 2.45158C14.4535 2.52852 14.527 2.63651 14.5613 2.7591L16.4056 9.91607C16.5098 10.3198 16.7202 10.6882 17.015 10.983C17.3099 11.2779 17.6783 11.4883 18.082 11.5924L25.239 13.4368C25.3621 13.4708 25.4706 13.5441 25.5479 13.6457C25.6253 13.7473 25.6672 13.8714 25.6672 13.9991C25.6672 14.1268 25.6253 14.2509 25.5479 14.3525C25.4706 14.4541 25.3621 14.5274 25.239 14.5614L18.082 16.4058C17.6783 16.5099 17.3099 16.7203 17.015 17.0152C16.7202 17.31 16.5098 17.6784 16.4056 18.0821L14.5601 25.2391C14.5258 25.3617 14.4523 25.4697 14.3509 25.5466C14.2495 25.6236 14.1257 25.6652 13.9984 25.6652C13.8711 25.6652 13.7473 25.6236 13.6459 25.5466C13.5445 25.4697 13.471 25.3617 13.4367 25.2391L11.5923 18.0821Z" stroke="white" stroke-width="2.33316" stroke-linecap="round" stroke-linejoin="round"/>
<path d="M23.3315 3.49951V8.16583" stroke="white" stroke-width="2.33316" stroke-linecap="round" stroke-linejoin="round"/>
<path d="M25.6649 5.83301H20.9985" stroke="white" stroke-width="2.33316" stroke-linecap="round" stroke-linejoin="round"/>
<path d="M4.6665 19.832V22.1652" stroke="white" stroke-width="2.33316" stroke-linecap="round" stroke-linejoin="round"/>
<path d="M5.83267 20.9985H3.49951" stroke="#FDFDFD" stroke-width="2.33316" stroke-linecap="round" stroke-linejoin="round"/>
</svg>
