<svg width="28" height="28" viewBox="0 0 28 28" fill="none" xmlns="http://www.w3.org/2000/svg">
<path d="M15.7488 8.16609C16.071 8.16609 16.3321 7.90494 16.3321 7.5828C16.3321 7.26066 16.071 6.99951 15.7488 6.99951C15.4267 6.99951 15.1655 7.26066 15.1655 7.5828C15.1655 7.90494 15.4267 8.16609 15.7488 8.16609Z" fill="white" stroke="white" stroke-width="2.33316" stroke-linecap="round" stroke-linejoin="round"/>
<path d="M20.4153 12.8326C20.7375 12.8326 20.9986 12.5714 20.9986 12.2493C20.9986 11.9272 20.7375 11.666 20.4153 11.666C20.0932 11.666 19.832 11.9272 19.832 12.2493C19.832 12.5714 20.0932 12.8326 20.4153 12.8326Z" fill="white" stroke="white" stroke-width="2.33316" stroke-linecap="round" stroke-linejoin="round"/>
<path d="M9.91581 9.3326C10.238 9.3326 10.4991 9.07145 10.4991 8.74931C10.4991 8.42716 10.238 8.16602 9.91581 8.16602C9.59367 8.16602 9.33252 8.42716 9.33252 8.74931C9.33252 9.07145 9.59367 9.3326 9.91581 9.3326Z" fill="white" stroke="white" stroke-width="2.33316" stroke-linecap="round" stroke-linejoin="round"/>
<path d="M7.5828 15.1656C7.90494 15.1656 8.16609 14.9045 8.16609 14.5823C8.16609 14.2602 7.90494 13.999 7.5828 13.999C7.26066 13.999 6.99951 14.2602 6.99951 14.5823C6.99951 14.9045 7.26066 15.1656 7.5828 15.1656Z" fill="white" stroke="white" stroke-width="2.33316" stroke-linecap="round" stroke-linejoin="round"/>
<path d="M13.9988 2.33301C7.58262 2.33301 2.33301 7.58262 2.33301 13.9988C2.33301 20.415 7.58262 25.6646 13.9988 25.6646C15.0791 25.6646 15.9213 24.7944 15.9213 23.6954C15.9213 23.1856 15.7114 22.7213 15.4115 22.383C15.0732 22.0459 14.9006 21.6224 14.9006 21.0706C14.8962 20.8139 14.9435 20.5589 15.0397 20.3208C15.1359 20.0827 15.2791 19.8664 15.4607 19.6848C15.6422 19.5033 15.8585 19.3601 16.0966 19.2639C16.3347 19.1677 16.5897 19.1203 16.8464 19.1248H19.1749C22.7342 19.1248 25.6553 16.2048 25.6553 12.6456C25.6238 7.01333 20.3695 2.33301 13.9988 2.33301Z" stroke="#FDFDFD" stroke-width="2.33316" stroke-linecap="round" stroke-linejoin="round"/>
</svg>
