<svg width="24" height="24" viewBox="0 0 24 24" fill="none" xmlns="http://www.w3.org/2000/svg">
<path d="M14.5358 21.6744C14.5738 21.769 14.6398 21.8497 14.7251 21.9058C14.8103 21.9618 14.9107 21.9904 15.0126 21.9878C15.1146 21.9852 15.2134 21.9515 15.2956 21.8912C15.3779 21.8309 15.4397 21.7468 15.4728 21.6504L21.9728 2.66072C22.0048 2.57216 22.0109 2.47632 21.9904 2.38442C21.9699 2.29252 21.9236 2.20836 21.857 2.14178C21.7904 2.0752 21.7062 2.02896 21.6142 2.00846C21.5223 1.98797 21.4264 1.99408 21.3378 2.02606L2.33781 8.52253C2.2413 8.5556 2.15723 8.61739 2.09688 8.6996C2.03652 8.78181 2.00278 8.8805 2.00016 8.98243C1.99755 9.08437 2.0262 9.18466 2.08226 9.26985C2.13833 9.35503 2.21912 9.42104 2.31381 9.45902L10.2438 12.6373C10.4945 12.7376 10.7223 12.8876 10.9134 13.0783C11.1045 13.2689 11.255 13.4963 11.3558 13.7467L14.5358 21.6744Z" stroke="#050A14" stroke-width="1.99891" stroke-linecap="round" stroke-linejoin="round"/>
<path d="M21.8541 2.146L10.9141 13.079" stroke="#050A14" stroke-width="1.99891" stroke-linecap="round" stroke-linejoin="round"/>
</svg>
