<svg width="28" height="28" viewBox="0 0 28 28" fill="none" xmlns="http://www.w3.org/2000/svg">
<path d="M2.33301 6.99959C3.03296 7.58288 3.7329 8.16617 5.24946 8.16617C8.16591 8.16617 8.16591 5.83301 11.0824 5.83301C14.1155 5.83301 13.8822 8.16617 16.9153 8.16617C19.8317 8.16617 19.8317 5.83301 22.7482 5.83301C24.2647 5.83301 24.9647 6.4163 25.6646 6.99959" stroke="white" stroke-width="2.33316" stroke-linecap="round" stroke-linejoin="round"/>
<path d="M2.33301 13.9991C3.03296 14.5824 3.7329 15.1657 5.24946 15.1657C8.16591 15.1657 8.16591 12.8325 11.0824 12.8325C14.1155 12.8325 13.8822 15.1657 16.9153 15.1657C19.8317 15.1657 19.8317 12.8325 22.7482 12.8325C24.2647 12.8325 24.9647 13.4158 25.6646 13.9991" stroke="white" stroke-width="2.33316" stroke-linecap="round" stroke-linejoin="round"/>
<path d="M2.33301 20.9986C3.03296 21.5819 3.7329 22.1652 5.24946 22.1652C8.16591 22.1652 8.16591 19.832 11.0824 19.832C14.1155 19.832 13.8822 22.1652 16.9153 22.1652C19.8317 22.1652 19.8317 19.832 22.7482 19.832C24.2647 19.832 24.9647 20.4153 25.6646 20.9986" stroke="white" stroke-width="2.33316" stroke-linecap="round" stroke-linejoin="round"/>
</svg>
